<svg width="241" height="81" viewBox="0 0 241 81" fill="none" xmlns="http://www.w3.org/2000/svg">
<g clip-path="url(#clip0_12_4)">
<path d="M81.3818 1.1864H74.4108V1.18323L65.6685 12.3071V18.791L74.4329 29.9149H81.4007L69.9353 15.5491L81.3818 1.1864Z" fill="white"/>
<path d="M64.5425 1.18323H59.1245V29.9149H64.5425V1.18323Z" fill="white"/>
<path d="M93.1509 17.9813H104.31V12.81H87.7329V29.9149H104.695V24.7468H93.1509V17.9813Z" fill="white"/>
<path d="M0.364258 6.35456H6.29152V29.9149H11.7095V6.35456H17.6336V1.18323H0.364258V6.35456Z" fill="white"/>
<path d="M37 0.721436C28.9821 0.721436 21.9194 7.24332 21.9194 15.3941C21.9194 23.7947 28.7164 30.3767 37.038 30.3767C45.3595 30.3767 52.0807 23.7789 52.0807 15.5491C52.0807 7.27178 45.1729 0.721436 37 0.721436ZM37.0411 25.2085C35.7633 25.2085 34.4982 24.9555 33.3184 24.4684C32.1387 23.9782 31.0696 23.2602 30.1682 22.3556C29.2668 21.451 28.5519 20.3788 28.068 19.1959C27.5809 18.0161 27.3342 16.7478 27.3406 15.4732C27.3406 10.2417 31.816 5.8896 37.0032 5.8896C42.1903 5.8896 46.6658 10.2702 46.6658 15.587C46.6658 20.9038 42.2568 25.2085 37.0411 25.2085Z" fill="white"/>
<path d="M212.996 12.092H210.232V21.8432H199.07L209.599 1.18323H206.819L196.293 21.8432V24.3261H210.232V29.4184H212.996V24.3261H215.511V21.8432H212.996V12.092Z" fill="white"/>
<path d="M231.195 1.18323C225.999 1.18323 221.751 5.57333 221.751 10.9123C221.751 16.2512 225.875 20.5591 230.658 20.5591C231.689 20.5591 232.514 20.3946 233.71 19.8981L227.318 29.4184H230.452L237.341 19.1927C240.105 15.0936 240.681 13.6039 240.681 10.9534C240.681 5.52905 236.474 1.18323 231.195 1.18323ZM231.195 18.0351C227.567 18.0351 224.515 14.7647 224.515 10.8743C224.515 6.98397 227.526 3.66926 231.195 3.66926C234.864 3.66926 237.916 6.93969 237.916 11.0388C237.916 14.8469 234.864 18.0351 231.195 18.0351Z" fill="white"/>
<path d="M104.695 1.18323H87.7329V6.3514H104.695V1.18323Z" fill="white"/>
<path d="M180.731 1.18323C179.441 1.18956 178.169 1.48371 177.005 2.04038C175.841 2.60021 174.82 3.40991 174.007 4.41255C172.482 6.23437 171.821 8.3029 171.821 11.1179V19.3983C171.821 22.2133 172.277 24.1585 173.267 25.7747C174.959 28.4252 177.638 29.9149 180.731 29.9149C183.578 29.9149 186.051 28.6719 187.785 26.3535C189.103 24.5728 189.641 22.5454 189.641 19.3983V11.1179C189.641 5.36458 185.887 1.18323 180.731 1.18323ZM186.877 18.946C186.877 21.47 186.548 23.2918 185.887 24.4115C184.732 26.3567 182.917 27.4321 180.731 27.4321C178.71 27.4321 177.103 26.5623 175.867 24.867C174.959 23.6239 174.589 21.8021 174.589 18.946V11.741C174.589 9.75467 175.044 7.68297 175.661 6.64871C176.733 4.90912 178.837 3.6661 180.734 3.6661C182.468 3.6661 184.407 4.70037 185.52 6.19325C186.387 7.35087 186.88 9.42256 186.88 11.741V18.9429L186.877 18.946Z" fill="white"/>
<path d="M164.268 9.63129C164.268 4.95337 160.432 1.18637 155.688 1.18637C150.45 1.18637 146.778 4.91225 146.778 10.2544V10.6276H149.501C149.542 8.88801 149.707 7.81262 150.244 6.81948C151.234 4.91542 153.338 3.6724 155.523 3.6724C158.781 3.6724 161.504 6.36402 161.504 9.54905C161.504 11.0388 160.846 12.5728 159.565 14.1447C158.863 15.0145 158.287 15.5933 156.266 17.5385L146.572 26.9386V29.4215H164.142V26.9386H150.282L159.233 18.3704C162.987 14.8089 164.265 12.5317 164.265 9.63445L164.268 9.63129Z" fill="white"/>
<path d="M130.682 19.4331L118.388 1.18323H112.71V29.9149H118.128V10.3461L131.346 29.9149H136.1V1.18323H130.682V19.4331Z" fill="white"/>
<path d="M12.4071 82.0427C8.42384 82.0427 5.44799 80.9888 3.51059 78.8654C1.5577 76.742 0.503751 73.3632 0.364258 68.7289L8.31534 67.52C8.34634 70.1548 8.67183 72.0612 9.2608 73.2547C9.86526 74.4481 10.7642 75.0371 11.9577 75.0371C13.5231 75.0371 14.3135 74.0296 14.3135 71.9992C14.3135 70.8678 14.112 69.8293 13.7091 68.8684C13.3061 67.9074 12.8101 67.1015 12.2211 66.4195C11.6322 65.7376 10.8107 64.9471 9.74127 64.0326L6.02146 60.8088C5.12251 60.0339 4.37855 59.3209 3.78958 58.6854C3.20061 58.05 2.62714 57.275 2.05367 56.3915C1.4802 55.5081 1.07722 54.5161 0.798235 53.4467C0.534749 52.3617 0.395256 51.1683 0.395256 49.8819C0.395256 46.3946 1.4492 43.6822 3.54159 41.7758C5.63398 39.8694 8.50134 38.9084 12.1591 38.8929C13.4146 38.8929 14.546 39.0324 15.569 39.2959C16.5919 39.5594 17.4444 39.9159 18.1573 40.3654C18.8548 40.7993 19.4748 41.3573 20.0017 42.0238C20.5287 42.6902 20.9472 43.3567 21.2727 44.0232C21.5827 44.6896 21.8461 45.4491 22.0631 46.2706C22.2801 47.1075 22.4196 47.867 22.4971 48.5644C22.5746 49.2619 22.6211 50.0059 22.6676 50.7963L14.639 51.8348C14.6235 51.1218 14.608 50.5328 14.577 50.0679C14.546 49.6029 14.4995 49.1069 14.4375 48.5799C14.3755 48.053 14.2825 47.6345 14.1585 47.309C14.0345 46.9835 13.8796 46.689 13.6936 46.4101C13.4921 46.1311 13.2596 45.9296 12.9651 45.8211C12.6706 45.6971 12.3141 45.6506 11.9112 45.6661C11.1052 45.6816 10.4852 46.0226 10.0513 46.689C9.61728 47.3555 9.40029 48.0995 9.40029 48.9364C9.40029 49.7269 9.49328 50.4553 9.69477 51.1063C9.88076 51.7573 10.2217 52.3772 10.7022 52.9972C11.1827 53.6017 11.5702 54.0667 11.8802 54.3611C12.1901 54.6711 12.6861 55.1361 13.3991 55.7871L16.9639 58.9334C17.9403 59.8169 18.7928 60.6538 19.4903 61.4598C20.2032 62.2657 20.8697 63.1802 21.5207 64.1876C22.1561 65.2106 22.6521 66.3265 22.9776 67.551C23.3031 68.7754 23.4736 70.0928 23.4736 71.4878C23.4736 74.5256 22.4661 77.052 20.4357 79.0514C18.3588 81.0508 15.7085 82.0427 12.4071 82.0427ZM27.9838 81.4692V39.4819H37.2523V81.4692H27.9838ZM43.483 81.4692V39.4819H50.0237L58.6567 59.6464V39.4819H66.3598V81.4692H60.0827L51.4186 59.7394V81.4692H43.483ZM83.4709 82.0737C81.3476 82.0737 79.5186 81.7327 78.0152 81.0508C76.5118 80.3688 75.3029 79.3613 74.4349 78.0439C73.5515 76.7265 72.916 75.2076 72.5285 73.4872C72.1255 71.7667 71.9395 69.7673 71.9395 67.5045V53.5552C71.9395 51.6953 72.0635 50.0369 72.327 48.5644C72.5905 47.092 73.0245 45.7436 73.6135 44.5192C74.2179 43.2792 74.9929 42.2718 75.9538 41.4503C76.9148 40.6444 78.1082 40.0089 79.5496 39.5594C80.9911 39.1099 82.6495 38.8929 84.5404 38.8929C86.3693 38.8929 87.9812 39.0944 89.3761 39.4819C90.7711 39.8694 91.949 40.4119 92.8789 41.1093C93.8089 41.8068 94.5839 42.6592 95.1728 43.6977C95.7618 44.7361 96.1803 45.8676 96.4438 47.092C96.6918 48.3165 96.8312 49.6804 96.8312 51.2148V53.8807H87.7487V50.5173C87.7487 49.8819 87.7332 49.3549 87.7177 48.9519C87.6867 48.5489 87.6247 48.0995 87.5162 47.6035C87.4077 47.1075 87.2527 46.7355 87.0358 46.4566C86.8188 46.1931 86.5243 45.9606 86.1213 45.7591C85.7183 45.5576 85.2378 45.4646 84.6644 45.4646C84.0754 45.4646 83.5639 45.5731 83.161 45.7901C82.7425 46.0071 82.4325 46.2706 82.2155 46.5805C81.9985 46.8905 81.828 47.309 81.704 47.836C81.58 48.363 81.5025 48.8434 81.4715 49.2619C81.4405 49.6959 81.4405 50.2229 81.4405 50.8428V70.0618C81.4405 71.7357 81.6885 73.0532 82.1845 74.0296C82.6805 75.0061 83.5949 75.4865 84.9124 75.4865C87.3457 75.4865 88.5547 73.6266 88.5547 69.8913V65.1796H84.7574V59.6309H96.9397V81.4692H90.7866L90.2596 77.9509C89.0042 80.6943 86.7568 82.0737 83.4709 82.0737ZM100.644 81.4692L108.595 39.4819H119.073L126.977 81.4692H118.422L116.98 72.5572H110.858L109.432 81.4692H100.644ZM111.664 67.0085H116.143L113.896 50.7498L111.664 67.0085ZM131.193 81.4692V39.4819H145.204C148.924 39.4819 151.698 40.5204 153.543 42.5973C155.387 44.6741 156.302 47.6965 156.302 51.6643C156.302 53.2297 156.162 54.6401 155.883 55.8956C155.604 57.151 155.201 58.2049 154.659 59.0574C154.116 59.9254 153.496 60.6538 152.783 61.2428C152.07 61.8473 151.249 62.3122 150.303 62.6532C149.358 62.9942 148.397 63.2267 147.405 63.3817C146.413 63.5212 145.328 63.5987 144.119 63.5987H140.477V81.4692H131.193ZM140.461 57.1355H143.422C145.096 57.1355 146.196 56.7015 146.754 55.8491C147.297 54.9966 147.576 53.5552 147.576 51.5093C147.576 50.7808 147.56 50.1764 147.514 49.6804C147.467 49.1844 147.374 48.6884 147.204 48.1925C147.049 47.681 146.816 47.278 146.522 46.9835C146.227 46.689 145.809 46.4411 145.297 46.2551C144.77 46.0691 144.135 45.9761 143.391 45.9761H140.446V57.1355H140.461ZM172.669 82.0427C170.344 82.0427 168.345 81.7327 166.702 81.1128C165.059 80.4928 163.741 79.5783 162.78 78.3539C161.804 77.1295 161.106 75.688 160.672 74.0296C160.238 72.3712 160.021 70.4183 160.021 68.1864V52.6872C160.021 50.4243 160.238 48.4714 160.672 46.8285C161.106 45.1856 161.804 43.7442 162.78 42.5353C163.757 41.3263 165.059 40.4119 166.702 39.8074C168.345 39.2029 170.328 38.8929 172.669 38.8929C177.21 38.8929 180.465 40.0554 182.433 42.3803C184.402 44.7051 185.378 48.146 185.378 52.7027V68.2019C185.378 72.7587 184.402 76.215 182.433 78.5399C180.465 80.8803 177.21 82.0427 172.669 82.0427ZM171.243 75.1921C171.646 75.3936 172.111 75.502 172.669 75.502C173.227 75.502 173.707 75.4091 174.11 75.2076C174.513 75.0061 174.823 74.7736 175.04 74.4791C175.257 74.1846 175.428 73.7971 175.567 73.3322C175.691 72.8672 175.769 72.4177 175.8 71.9992C175.831 71.5807 175.846 71.0848 175.846 70.5113V50.3623C175.846 49.8044 175.831 49.3239 175.8 48.9054C175.769 48.4869 175.691 48.053 175.567 47.588C175.443 47.123 175.273 46.751 175.04 46.4566C174.823 46.1621 174.513 45.9296 174.11 45.7281C173.707 45.5266 173.227 45.4336 172.669 45.4336C172.111 45.4336 171.63 45.5266 171.243 45.7281C170.84 45.9296 170.545 46.1621 170.313 46.4411C170.096 46.72 169.925 47.092 169.801 47.588C169.677 48.0685 169.615 48.5024 169.584 48.8899C169.553 49.2774 169.553 49.7734 169.553 50.3623V70.4958C169.553 71.0848 169.569 71.5807 169.584 71.9837C169.615 72.3867 169.677 72.8207 169.801 73.3012C169.925 73.7816 170.096 74.1691 170.313 74.4481C170.53 74.7426 170.84 74.9751 171.243 75.1921ZM190.958 81.4692V39.4819H202.412C204.179 39.4819 205.76 39.5904 207.124 39.7919C208.487 39.9934 209.774 40.3499 210.967 40.8613C212.161 41.3728 213.153 42.0393 213.928 42.8607C214.703 43.6822 215.307 44.7516 215.757 46.0536C216.191 47.3555 216.408 48.8744 216.408 50.6103C216.408 53.3692 216.036 55.5701 215.292 57.244C214.548 58.9179 213.199 60.2198 211.262 61.1498L217.043 81.4847H207.449L202.846 62.6997H200.242V81.4692H190.958ZM200.226 57.337H202.613C204.504 57.337 205.837 56.841 206.612 55.8646C207.387 54.8881 207.775 53.4002 207.775 51.4318C207.775 49.4944 207.418 48.053 206.721 47.1075C206.023 46.1776 204.814 45.6971 203.094 45.6971H200.226V57.337ZM221.956 81.4692V39.4819H240.819V45.8211H231.225V56.2055H238.54V62.6687H231.225V75.2076H240.927V81.4692H221.956Z" fill="white"/>
</g>
<defs>
<clipPath id="clip0_12_4">
<rect width="240.563" height="81.3523" fill="white" transform="translate(0.364258 0.721436)"/>
</clipPath>
</defs>
</svg>
