<svg width="1000" height="79" viewBox="0 0 1000 79" fill="none" xmlns="http://www.w3.org/2000/svg">
<path d="M663.574 0.763367H676.758L679.199 2.22821L681.152 7.11102L692.871 48.6149L694.336 54.4743L699.219 38.8493L710.938 3.69305L712.891 1.25165L714.355 0.763367H721.191L723.633 2.22821L725.586 6.13446L734.375 32.9899L740.723 53.0095V54.9626H741.699L742.188 50.0798L750.977 18.8298L755.371 3.69305L757.324 1.25165L758.789 0.763367H770.996L770.508 4.18134L762.207 31.0368L750.977 67.1696L748.047 75.9587H734.863L729.98 61.3102L722.168 36.8962L717.285 22.2477L705.566 58.3806L700.195 75.4704L699.707 75.9587H686.523L682.617 63.7516L674.805 38.8493L664.062 4.18134L663.574 0.763367Z" fill="#FEFEFE"/>
<path d="M293.457 1.25165H308.105L322.266 22.2477L336.426 43.7321L339.844 48.6149V1.73993L340.332 1.25165H354.004L354.492 2.22821V76.9352H341.309L336.426 69.1227L333.008 64.2399L320.312 45.197L308.105 27.1306V26.154H307.129L307.617 38.8493V76.9352H292.969V1.73993L293.457 1.25165Z" fill="#FEFEFE"/>
<path d="M91.3086 0.275085H100.098L107.422 1.73993L113.281 4.18134L119.141 7.5993L125.488 13.4587L129.395 18.8298L132.812 25.6657L134.277 30.5485L134.766 33.9665V44.7087L132.812 52.5212L128.906 60.3337L125.488 64.7282L120.117 70.0993L113.77 74.0056L107.91 76.447L102.051 77.9118H88.8672L81.543 75.9587L73.2422 71.5641L67.8711 67.1696L63.9648 62.7751L59.5703 55.4509L57.1289 48.1266L56.1523 41.2907V35.9196L57.6172 28.1071L60.0586 22.2477L62.9883 16.8766L68.3594 11.0173L72.2656 7.5993L79.1016 3.69305L85.4492 1.25165L91.3086 0.275085ZM91.3086 13.947L86.4258 15.4118L81.0547 18.3415L76.1719 22.736L72.2656 29.0837L70.3125 36.8962V41.2907L71.7773 47.6384L75.1953 54.4743L80.5664 59.8454L84.4727 62.2868L90.332 64.2399L93.2617 64.7282H98.6328L105.469 62.7751L111.328 59.3571L115.234 55.4509L118.652 50.0798L120.605 44.2204L121.094 38.361L119.629 30.5485L116.211 24.2009L112.793 20.2946L107.91 16.8766L102.051 14.4352L100.098 13.947H91.3086Z" fill="#FEFEFE"/>
<path d="M0 1.25165H44.9219V14.9235H29.7852V76.9352H15.625V14.9235H0V1.25165Z" fill="#FEFEFE"/>
<path d="M859.863 32.0134H903.32V45.6852H874.023L874.512 63.2634L904.297 63.7516V77.4235H859.863V32.0134Z" fill="#FEFEFE"/>
<path d="M791.016 32.0134H834.473V45.6852H805.176V63.7516H835.449V77.4235H791.504L791.016 76.9352V32.0134Z" fill="#FEFEFE"/>
<path d="M228.027 32.0134H271.484V45.6852H242.188V63.2634H271.973L272.461 63.7516V76.9352H228.027V32.0134Z" fill="#FEFEFE"/>
<path d="M970.703 0.275085H989.746L986.816 4.18134L982.422 9.55243L976.074 17.3649L970.703 24.2009L965.332 30.5485L959.961 37.3845V39.3376L965.332 45.6852L970.703 52.5212L977.539 60.822L983.887 68.6345L988.281 74.0056L989.746 76.447H970.703L964.355 68.6345L958.984 61.7985L952.637 53.986L947.266 47.1501V29.572L953.613 21.7595L957.031 17.3649L964.844 7.5993L970.703 0.275085Z" fill="#FEFEFE"/>
<path d="M193.359 1.25165H211.426L209.961 3.69305L203.613 11.5056L197.266 19.8063L190.43 28.1071L185.547 34.4548L182.129 38.8493L183.105 40.8024L189.453 48.6149L194.336 54.9626L199.707 61.7985L206.055 69.611L211.426 76.447V76.9352H192.871L187.988 70.5876L177.246 56.9157L170.41 48.1266V30.5485L176.27 22.736L182.129 15.4118L188.477 7.11102L192.871 1.73993L193.359 1.25165Z" fill="#FEFEFE"/>
<path d="M468.262 1.25165H473.145L479.004 2.71649L484.375 5.64618L488.77 10.0407L492.676 17.8532L493.652 21.7595L494.141 32.5016V48.1266L493.652 56.4274L491.699 63.7516L488.281 69.1227L483.398 73.5173L478.516 75.9587L474.609 76.9352H466.797L460.449 74.9821L455.566 71.5641L451.172 66.6813L448.73 61.3102L447.754 57.404L447.266 52.5212V25.1774L448.242 18.8298L450.195 13.947L453.125 9.55243L457.031 5.64618L463.867 2.22821L468.262 1.25165ZM467.773 8.08759L462.891 10.0407L458.008 14.4352L455.566 19.8063L454.59 25.6657V53.0095L455.566 58.8688L457.52 63.2634L460.938 67.1696L464.844 69.611L469.238 70.5876L475.098 70.0993L479.98 67.6579L483.887 63.2634L485.84 58.8688L486.816 51.5446V26.6423L485.352 18.3415L482.91 13.947L479.004 10.529L475.098 8.57587L473.633 8.08759H467.773Z" fill="#FEFEFE"/>
<path d="M600.098 1.25165H604.492L609.375 2.22821L614.258 4.18134L618.652 7.5993L622.07 11.0173L625 16.3884L626.953 22.736V32.0134L625 37.8727L621.094 45.197L606.934 66.1931L602.051 73.5173L600.586 75.4704L592.285 75.9587L593.262 73.5173L607.422 52.5212L607.91 51.5446L603.027 52.5212H598.633L594.238 51.5446L588.379 48.6149L584.473 45.197L581.055 40.3141L578.613 34.9431L577.637 30.5485V23.7126L579.102 17.8532L582.031 11.9938L586.914 6.62274L591.797 3.69305L597.168 1.73993L600.098 1.25165ZM599.121 8.08759L594.727 9.55243L590.332 12.9704L587.402 16.8766L585.449 21.2712L584.961 23.7126V30.0602L586.426 34.9431L589.355 39.8259L593.262 43.2438L599.121 45.6852H605.469L611.328 43.2438L615.234 39.8259L618.164 35.4313L619.629 31.5251L620.117 25.6657L618.164 18.3415L614.746 13.4587L611.328 10.529L607.422 8.57587L605.469 8.08759H599.121Z" fill="#FEFEFE"/>
<path d="M402.832 1.25165H407.715L413.574 2.71649L418.945 5.64618L423.828 10.529L426.758 16.3884L427.734 20.7829V27.1306L425.781 32.9899L422.852 37.8727L418.457 42.7556L415.039 46.6618L411.133 50.0798L401.855 59.3571L397.949 62.7751L392.09 68.6345L427.246 69.1227V75.4704L381.836 75.9587L381.348 75.4704V69.1227L397.949 52.5212L401.855 49.1032L414.062 36.8962L418.457 30.5485L419.922 26.154V20.7829L417.969 15.4118L414.551 11.5056L409.668 9.06415L408.203 8.57587H401.367L396.973 10.529L393.555 12.9704L390.625 17.8532L389.16 26.154H381.836L382.324 19.8063L384.277 13.947L387.695 8.57587L391.602 5.1579L396.484 2.71649L399.414 1.73993L402.832 1.25165Z" fill="#FEFEFE"/>
<path d="M929.688 0.275085H944.336V76.447H929.688V0.275085Z" fill="#FEFEFE"/>
<path d="M153.32 1.25165H167.48V76.9352H153.32V1.25165Z" fill="#FEFEFE"/>
<path d="M538.574 1.25165H545.898L544.922 4.18134L535.156 23.2243L520.02 53.4977L518.555 55.9391L529.785 55.4509H541.016L547.363 55.9391V30.5485L547.852 30.0602H554.688V55.9391H561.523V62.2868H554.688V75.4704H547.363V62.2868H511.23V55.4509L529.785 18.3415L534.668 9.06415L538.574 1.25165Z" fill="#FEFEFE"/>
<path d="M859.863 1.25165H904.297V14.9235H859.863V1.25165Z" fill="#FEFEFE"/>
<path d="M791.016 1.25165H835.449V14.9235H791.016V1.25165Z" fill="#FEFEFE"/>
<path d="M228.027 1.25165H271.973L272.461 1.73993V14.9235H228.027V1.25165Z" fill="#FEFEFE"/>
</svg>
