<svg xmlns="http://www.w3.org/2000/svg" width="100" height="100" viewBox="0 0 100 100">
  <defs>
    <style>
      .cls-1 {
        fill: #8553FB;
      }
    </style>
  </defs>
  <path id="MXV_TICK" data-name="MXV TICK" class="cls-1" d="M101.5,53.881A19.162,19.162,0,0,0,91.271,36.738,19.913,19.913,0,0,0,92.4,30.071c0-10.524-8.142-19.038-18.18-19.038a17.091,17.091,0,0,0-6.362,1.19,17.85,17.85,0,0,0-32.727-.01,17.168,17.168,0,0,0-6.362-1.19c-10.047,0-18.18,8.524-18.18,19.048a19.953,19.953,0,0,0,1.129,6.667,19.5,19.5,0,0,0-.976,33.743,20.849,20.849,0,0,0-.152,2.448c0,10.524,8.133,19.048,18.18,19.048a17.24,17.24,0,0,0,6.357-1.19,17.856,17.856,0,0,0,32.732,0,17.339,17.339,0,0,0,6.362,1.181c10.047,0,18.18-8.524,18.18-19.048a19.728,19.728,0,0,0-.157-2.443,19.229,19.229,0,0,0,9.252-16.59ZM70,38,49.359,68.957a3.576,3.576,0,0,1-4.957.99l-.548-.448L32.355,58A3.569,3.569,0,1,1,37.4,52.952l8.428,8.414L64.044,34.033A3.576,3.576,0,0,1,70,38Z" transform="translate(-1.498 -1.5)"/>
</svg>
