<svg width="198" height="67" viewBox="0 0 198 67" fill="none" xmlns="http://www.w3.org/2000/svg">
<g clip-path="url(#clip0_143_2325)">
<g clip-path="url(#clip1_143_2325)">
<path d="M66.8238 0.746838H61.1099V0.744246L53.9441 9.86219V15.1769L61.128 24.2948H66.8394L57.4414 12.5195L66.8238 0.746838Z" fill="white"/>
<path d="M53.0211 0.744246H48.5801V24.2948H53.0211V0.744246Z" fill="white"/>
<path d="M76.4706 14.5132H85.6171V10.2744H72.0296V24.2948H85.9334V20.0586H76.4706V14.5132Z" fill="white"/>
<path d="M0.416016 4.98304H5.27442V24.2948H9.71543V4.98304H14.5712V0.744246H0.416016V4.98304Z" fill="white"/>
<path d="M30.4453 0.365723C23.8733 0.365723 18.0841 5.71153 18.0841 12.3925C18.0841 19.2783 23.6555 24.6733 30.4764 24.6733C37.2974 24.6733 42.8065 19.2653 42.8065 12.5195C42.8065 5.73486 37.1444 0.365723 30.4453 0.365723ZM30.479 20.4371C29.4317 20.4371 28.3946 20.2297 27.4276 19.8305C26.4606 19.4286 25.5843 18.8401 24.8455 18.0987C24.1066 17.3572 23.5207 16.4783 23.124 15.5087C22.7248 14.5417 22.5226 13.5021 22.5277 12.4573C22.5277 8.16925 26.1962 4.60192 30.4479 4.60192C34.6997 4.60192 38.3681 8.19258 38.3681 12.5506C38.3681 16.9087 34.7541 20.4371 30.479 20.4371Z" fill="white"/>
<path d="M174.704 9.68589H172.438V17.6787H163.289L171.92 0.744246H169.641L161.013 17.6787V19.7138H172.438V23.8878H174.704V19.7138H176.765V17.6787H174.704V9.68589Z" fill="white"/>
<path d="M189.622 0.744246C185.362 0.744246 181.88 4.34268 181.88 8.71888C181.88 13.0951 185.261 16.6261 189.181 16.6261C190.026 16.6261 190.703 16.4913 191.683 16.0843L186.443 23.8878H189.012L194.659 15.5061C196.925 12.1462 197.397 10.9251 197.397 8.75258C197.397 4.30639 193.949 0.744246 189.622 0.744246ZM189.622 14.5573C186.648 14.5573 184.146 11.8766 184.146 8.68776C184.146 5.49895 186.614 2.78197 189.622 2.78197C192.629 2.78197 195.131 5.46265 195.131 8.82257C195.131 11.944 192.629 14.5573 189.622 14.5573Z" fill="white"/>
<path d="M85.9334 0.744246H72.0296V4.98045H85.9334V0.744246Z" fill="white"/>
<path d="M148.258 0.744246C147.2 0.749431 146.158 0.990536 145.204 1.44682C144.25 1.9057 143.412 2.56939 142.746 3.39122C141.497 4.88452 140.955 6.58004 140.955 8.88739V15.6746C140.955 17.982 141.328 19.5764 142.139 20.9012C143.526 23.0737 145.722 24.2948 148.258 24.2948C150.591 24.2948 152.618 23.276 154.039 21.3756C155.12 19.916 155.561 18.2542 155.561 15.6746V8.88739C155.561 4.17158 152.484 0.744246 148.258 0.744246ZM153.295 15.3039C153.295 17.3728 153.026 18.8661 152.484 19.7838C151.537 21.3782 150.049 22.2597 148.258 22.2597C146.601 22.2597 145.284 21.5467 144.271 20.1571C143.526 19.1383 143.223 17.645 143.223 15.3039V9.39812C143.223 7.77001 143.596 6.0719 144.102 5.22414C144.981 3.79825 146.705 2.77938 148.26 2.77938C149.681 2.77938 151.27 3.62714 152.183 4.85082C152.893 5.79969 153.298 7.4978 153.298 9.39812V15.3013L153.295 15.3039Z" fill="white"/>
<path d="M134.764 7.66888C134.764 3.83452 131.619 0.746813 127.73 0.746813C123.437 0.746813 120.427 3.80082 120.427 8.17961V8.48553H122.659C122.693 7.05963 122.828 6.17817 123.268 5.36412C124.08 3.80341 125.804 2.78454 127.595 2.78454C130.266 2.78454 132.498 4.99079 132.498 7.60147C132.498 8.82256 131.959 10.0799 130.909 11.3684C130.333 12.0814 129.861 12.5558 128.205 14.1502L120.259 21.8552V23.8904H134.66V21.8552H123.3L130.636 14.8321C133.714 11.9129 134.761 10.0462 134.761 7.67147L134.764 7.66888Z" fill="white"/>
<path d="M107.234 15.7032L97.1564 0.744246H92.5028V24.2948H96.9438V8.25482L107.778 24.2948H111.675V0.744246H107.234V15.7032Z" fill="white"/>
<path d="M10.2872 67.023C7.02223 67.023 4.58301 66.1591 2.99498 64.4186C1.39424 62.6781 0.530354 59.9086 0.416016 56.11L6.9333 55.1191C6.95871 57.2788 7.2255 58.8414 7.70826 59.8196C8.20373 60.7979 8.94057 61.2806 9.9188 61.2806C11.2019 61.2806 11.8499 60.4549 11.8499 58.7906C11.8499 57.8632 11.6847 57.012 11.3544 56.2243C11.0241 55.4367 10.6175 54.7761 10.1348 54.2171C9.65201 53.6581 8.97869 53.0102 8.10209 52.2606L5.05307 49.6181C4.31622 48.9829 3.70642 48.3985 3.22366 47.8776C2.7409 47.3568 2.27084 46.7216 1.80078 45.9974C1.33072 45.2733 1.00041 44.4602 0.771735 43.5836C0.555762 42.6943 0.441424 41.7161 0.441424 40.6616C0.441424 37.8032 1.30531 35.5799 3.02039 34.0173C4.73546 32.4547 7.08575 31.667 10.084 31.6543C11.113 31.6543 12.0404 31.7686 12.8789 31.9846C13.7174 32.2006 14.4161 32.4928 15.0005 32.8612C15.5722 33.2169 16.0804 33.6743 16.5123 34.2206C16.9443 34.7668 17.2873 35.3131 17.5541 35.8594C17.8081 36.4057 18.0241 37.0282 18.202 37.7015C18.3798 38.3876 18.4942 39.0101 18.5577 39.5818C18.6212 40.1534 18.6593 40.7633 18.6974 41.4112L12.1166 42.2624C12.1039 41.678 12.0912 41.1952 12.0658 40.8141C12.0404 40.4329 12.0023 40.0264 11.9515 39.5945C11.9007 39.1625 11.8244 38.8195 11.7228 38.5527C11.6212 38.2859 11.4941 38.0445 11.3417 37.8159C11.1765 37.5872 10.986 37.422 10.7446 37.3331C10.5032 37.2315 10.211 37.1934 9.88069 37.2061C9.22007 37.2188 8.7119 37.4983 8.35618 38.0445C8.00046 38.5908 7.8226 39.2006 7.8226 39.8867C7.8226 40.5346 7.89883 41.1317 8.06398 41.6653C8.21643 42.1988 8.49593 42.707 8.88976 43.2152C9.28359 43.7106 9.6012 44.0918 9.85528 44.3331C10.1094 44.5872 10.5159 44.9684 11.1003 45.5019L14.0223 48.0809C14.8226 48.805 15.5214 49.4911 16.0931 50.1517C16.6775 50.8123 17.2238 51.5619 17.7573 52.3876C18.2782 53.2261 18.6847 54.1408 18.9515 55.1445C19.2183 56.1481 19.3581 57.228 19.3581 58.3714C19.3581 60.8614 18.5323 62.9322 16.868 64.571C15.1657 66.2099 12.9932 67.023 10.2872 67.023ZM23.055 66.5529V32.1371H30.6522V66.5529H23.055ZM35.7593 66.5529V32.1371H41.1205L48.1967 48.6653V32.1371H54.5108V66.5529H49.3655L42.2638 48.7415V66.5529H35.7593ZM68.5363 67.0484C66.7958 67.0484 65.2967 66.7689 64.0644 66.2099C62.832 65.6509 61.8411 64.8251 61.1297 63.7453C60.4055 62.6654 59.8847 61.4204 59.5671 60.0102C59.2367 58.6 59.0843 56.9612 59.0843 55.1064V43.6725C59.0843 42.148 59.1859 40.7887 59.4019 39.5818C59.6179 38.3749 59.9736 37.2696 60.4563 36.2659C60.9518 35.2496 61.587 34.4238 62.3747 33.7505C63.1624 33.0899 64.1406 32.569 65.3221 32.2006C66.5036 31.8322 67.8629 31.6543 69.4129 31.6543C70.912 31.6543 72.2332 31.8195 73.3766 32.1371C74.52 32.4547 75.4855 32.8993 76.2477 33.471C77.01 34.0427 77.6452 34.7414 78.128 35.5926C78.6107 36.4438 78.9538 37.3712 79.1697 38.3749C79.373 39.3785 79.4873 40.4965 79.4873 41.7542V43.9393H72.0426V41.1825C72.0426 40.6616 72.0299 40.2297 72.0172 39.8994C71.9918 39.5691 71.941 39.2006 71.8521 38.7941C71.7631 38.3876 71.6361 38.0827 71.4582 37.854C71.2804 37.638 71.039 37.4474 70.7087 37.2823C70.3784 37.1171 69.9845 37.0409 69.5145 37.0409C69.0317 37.0409 68.6125 37.1298 68.2822 37.3077C67.9392 37.4856 67.6851 37.7015 67.5072 37.9556C67.3294 38.2097 67.1896 38.5527 67.088 38.9847C66.9863 39.4166 66.9228 39.8104 66.8974 40.1534C66.872 40.5092 66.872 40.9411 66.872 41.4493V57.2026C66.872 58.5746 67.0753 59.6545 67.4818 60.4549C67.8883 61.2552 68.6379 61.6491 69.7178 61.6491C71.7123 61.6491 72.7033 60.1245 72.7033 57.0628V53.2007H69.5907V48.6526H79.5763V66.5529H74.5327L74.1007 63.669C73.0717 65.9177 71.2296 67.0484 68.5363 67.0484ZM82.6126 66.5529L89.1299 32.1371H97.7179L104.197 66.5529H97.1844L96.0029 59.248H90.9847L89.8159 66.5529H82.6126ZM91.6453 54.6998H95.3168L93.4747 41.3731L91.6453 54.6998ZM107.653 66.5529V32.1371H119.137C122.186 32.1371 124.46 32.9882 125.972 34.6906C127.484 36.393 128.234 38.8703 128.234 42.1226C128.234 43.4057 128.119 44.5618 127.891 45.5909C127.662 46.6199 127.332 47.4838 126.887 48.1825C126.442 48.894 125.934 49.4911 125.35 49.9738C124.765 50.4693 124.092 50.8504 123.317 51.1299C122.542 51.4094 121.754 51.6 120.941 51.727C120.128 51.8414 119.239 51.9049 118.248 51.9049H115.263V66.5529H107.653ZM115.25 46.6072H117.676C119.048 46.6072 119.95 46.2515 120.408 45.5528C120.852 44.854 121.081 43.6725 121.081 41.9956C121.081 41.3985 121.068 40.903 121.03 40.4965C120.992 40.0899 120.916 39.6834 120.776 39.2769C120.649 38.8576 120.459 38.5273 120.217 38.2859C119.976 38.0445 119.633 37.8413 119.214 37.6888C118.782 37.5364 118.261 37.4601 117.651 37.4601H115.237V46.6072H115.25ZM141.649 67.023C139.744 67.023 138.105 66.7689 136.758 66.2607C135.411 65.7525 134.332 65.003 133.544 63.9993C132.744 62.9957 132.172 61.8142 131.816 60.4549C131.46 59.0955 131.283 57.4948 131.283 55.6653V42.9611C131.283 41.1063 131.46 39.5055 131.816 38.1589C132.172 36.8122 132.744 35.6307 133.544 34.6398C134.344 33.6489 135.411 32.8993 136.758 32.4038C138.105 31.9084 139.731 31.6543 141.649 31.6543C145.372 31.6543 148.04 32.6071 149.653 34.5128C151.266 36.4184 152.067 39.2387 152.067 42.9738V55.6781C152.067 59.4131 151.266 62.2462 149.653 64.1518C148.04 66.0701 145.372 67.023 141.649 67.023ZM140.48 61.4077C140.811 61.5728 141.192 61.6618 141.649 61.6618C142.107 61.6618 142.5 61.5855 142.831 61.4204C143.161 61.2552 143.415 61.0647 143.593 60.8233C143.771 60.5819 143.911 60.2643 144.025 59.8832C144.127 59.502 144.19 59.1336 144.216 58.7906C144.241 58.4476 144.254 58.041 144.254 57.571V41.0554C144.254 40.5981 144.241 40.2043 144.216 39.8612C144.19 39.5182 144.127 39.1625 144.025 38.7814C143.923 38.4003 143.784 38.0954 143.593 37.854C143.415 37.6126 143.161 37.422 142.831 37.2569C142.5 37.0917 142.107 37.0155 141.649 37.0155C141.192 37.0155 140.798 37.0917 140.48 37.2569C140.15 37.422 139.909 37.6126 139.718 37.8413C139.54 38.0699 139.401 38.3748 139.299 38.7814C139.197 39.1752 139.147 39.5309 139.121 39.8485C139.096 40.1661 139.096 40.5727 139.096 41.0554V57.5583C139.096 58.041 139.108 58.4476 139.121 58.7779C139.147 59.1082 139.197 59.4639 139.299 59.8578C139.401 60.2516 139.54 60.5692 139.718 60.7979C139.896 61.0393 140.15 61.2298 140.48 61.4077ZM156.64 66.5529V32.1371H166.029C167.477 32.1371 168.773 32.226 169.891 32.3911C171.009 32.5563 172.063 32.8485 173.042 33.2677C174.02 33.687 174.833 34.2333 175.468 34.9066C176.103 35.5799 176.599 36.4565 176.967 37.5237C177.323 38.5908 177.501 39.8358 177.501 41.2587C177.501 43.5201 177.196 45.3241 176.586 46.6961C175.976 48.0682 174.871 49.1354 173.283 49.8976L178.022 66.5656H170.158L166.384 51.168H164.25V66.5529H156.64ZM164.237 46.7724H166.194C167.744 46.7724 168.836 46.3658 169.472 45.5655C170.107 44.7651 170.424 43.5455 170.424 41.932C170.424 40.344 170.132 39.1625 169.561 38.3876C168.989 37.6253 167.998 37.2315 166.588 37.2315H164.237V46.7724ZM182.049 66.5529V32.1371H197.51V37.3331H189.646V45.845H195.642V51.1426H189.646V61.4204H197.599V66.5529H182.049Z" fill="white"/>
</g>
</g>
<defs>
<clipPath id="clip0_143_2325">
<rect width="198" height="67" fill="white"/>
</clipPath>
<clipPath id="clip1_143_2325">
<rect width="197.183" height="66.6822" fill="white" transform="translate(0.416016 0.365723)"/>
</clipPath>
</defs>
</svg>
