<svg width="183" height="23" viewBox="0 0 183 23" fill="none" xmlns="http://www.w3.org/2000/svg">
<path d="M175.396 13.1068C172.638 13.1068 170.32 10.6312 170.32 7.68605C170.32 4.74085 172.609 2.2342 175.396 2.2342C178.183 2.2342 180.505 4.70971 180.505 7.8132C180.505 10.6961 178.185 13.1094 175.396 13.1094M172.451 21.7244H174.833L180.067 13.9838C182.166 10.8803 182.605 9.75157 182.605 7.74832C182.605 3.64322 179.408 0.352906 175.396 0.352906C171.384 0.352906 168.218 3.67436 168.218 7.71718C168.218 11.76 171.353 15.0192 174.986 15.0192C175.77 15.0192 176.398 14.8946 177.306 14.5184L172.448 21.727L172.451 21.7244ZM132.383 8.34255C132.383 6.83752 132.728 5.27021 133.198 4.48656C134.013 3.17095 135.611 2.22901 137.051 2.22901C138.367 2.22901 139.841 3.01266 140.687 4.14144C141.346 5.01851 141.722 6.58581 141.722 8.33996V13.7918C141.722 15.7042 141.47 17.0821 140.97 17.928C140.093 19.4019 138.712 20.2167 137.051 20.2167C135.515 20.2167 134.293 19.5576 133.354 18.2732C132.663 17.3338 132.381 15.9533 132.381 13.7918V8.33996L132.383 8.34255ZM143.821 7.87288C143.821 3.51607 140.97 0.350311 137.051 0.350311C135.077 0.350311 133.198 1.25852 131.942 2.79469C130.782 4.17257 130.281 5.73988 130.281 7.87288V14.1395C130.281 16.2699 130.626 17.7438 131.379 18.966C132.663 20.9718 134.7 22.1006 137.051 22.1006C139.213 22.1006 141.094 21.1613 142.41 19.4045C143.414 18.0578 143.821 16.5216 143.821 14.1395V7.87288ZM156.874 0.350311L148.874 15.9897V17.871H159.466V21.7244H161.565V17.871H163.478V15.9897H161.565V8.60982H159.466V15.9897H150.986L158.986 0.350311H156.874ZM111.097 21.7244H124.448V19.8431H113.918L120.719 13.3559C123.571 10.6598 124.541 8.93678 124.541 6.7441C124.541 3.20209 121.627 0.350311 118.023 0.350311C114.043 0.350311 111.253 3.17095 111.253 7.21378V7.49662H113.321C113.352 6.18101 113.477 5.36622 113.884 4.6137C114.637 3.17095 116.235 2.2316 117.896 2.2316C120.371 2.2316 122.44 4.26858 122.44 6.68183C122.44 7.8106 121.939 8.97051 120.966 10.1616C120.434 10.8207 119.995 11.2592 118.459 12.7305L111.095 19.8457V21.727L111.097 21.7244Z" fill="white"/>
<path fill-rule="evenodd" clip-rule="evenodd" d="M27.8379 0C21.7451 0 16.3789 4.93547 16.3789 11.1087C16.3789 17.2819 21.5453 22.4509 27.8665 22.4509C34.1876 22.4509 39.2969 17.4558 39.2969 11.2255C39.2969 4.99515 34.0475 0 27.8379 0ZM27.8665 18.5378C23.7847 18.5378 20.4944 15.2501 20.4944 11.1684C20.4944 7.08663 23.8963 3.91568 27.8353 3.91568C31.7743 3.91568 35.1762 7.23194 35.1762 11.2566C35.1762 15.2813 31.8262 18.5404 27.8639 18.5404L27.8665 18.5378Z" fill="white"/>
<path fill-rule="evenodd" clip-rule="evenodd" d="M4.50212 4.2634H0V0.350311H13.1223V4.2634H8.6202V22.1006H4.50212V4.2634Z" fill="white"/>
<path fill-rule="evenodd" clip-rule="evenodd" d="M48.7655 16.026V22.1006H44.6475V0.350311H48.7655V9.61664V16.026Z" fill="white"/>
<path fill-rule="evenodd" clip-rule="evenodd" d="M52.8627 11.2255L61.5608 0.350311H56.2646L49.6191 8.77071V11.2255V13.6802L56.2776 22.1006H61.5738L52.8627 11.2255Z" fill="white"/>
<path fill-rule="evenodd" clip-rule="evenodd" d="M66.3848 4.2634V0.350311H79.2761V4.2634H70.5028H66.3848Z" fill="white"/>
<path fill-rule="evenodd" clip-rule="evenodd" d="M70.5028 9.15213H78.9829V13.0652H70.5028V18.1875H79.2761V22.1006H66.3848V9.15213H70.5028Z" fill="white"/>
<path fill-rule="evenodd" clip-rule="evenodd" d="M99.0205 14.1629V0.350311H103.139V22.1006H99.5265L89.4843 7.28384V22.1006H85.3662V0.350311H89.6789L99.0205 14.1629Z" fill="white"/>
</svg>
