<svg width="308" height="119" viewBox="0 0 308 119" fill="none" xmlns="http://www.w3.org/2000/svg">
<path d="M144.165 0.479736H151.361L158.318 10.7944L165.274 21.3489L166.953 23.7477V0.719612L167.193 0.479736H173.91L174.15 0.959487V37.6604H167.673L165.274 33.8224L163.595 31.4237L157.358 22.0685L151.361 13.1931V12.7134H150.882L151.122 18.9501V37.6604H143.925V0.719612L144.165 0.479736Z" fill="#FEFEFE"/>
<path d="M44.8565 0H49.1742L52.7724 0.719626L55.6509 1.919L58.5294 3.59813L61.6478 6.47664L63.5668 9.11527L65.2459 12.4735L65.9655 14.8723L66.2054 16.5514V21.8287L65.2459 25.6667L63.3269 29.5047L61.6478 31.6636L59.0091 34.3022L55.8908 36.2212L53.0122 37.4206L50.1337 38.1402H43.6571L40.059 37.1807L35.9811 35.0218L33.3425 32.8629L31.4235 30.7041L29.2646 27.1059L28.0652 23.5078L27.5854 20.1495V17.5109L28.3051 13.6729L29.5045 10.7944L30.9437 8.15576L33.5823 5.27726L35.5013 3.59813L38.8596 1.67913L41.978 0.479751L44.8565 0ZM44.8565 6.71651L42.4577 7.43614L39.8191 8.87539L37.4203 11.0343L35.5013 14.1527L34.5418 17.9907V20.1495L35.2615 23.2679L36.9406 26.6262L39.5792 29.2648L41.4982 30.4642L44.3767 31.4237L45.816 31.6636H48.4546L51.8129 30.7041L54.6914 29.0249L56.6104 27.1059L58.2895 24.4673L59.249 21.5888L59.4889 18.7103L58.7693 14.8723L57.0901 11.7539L55.411 9.83489L53.0122 8.15576L50.1337 6.95639L49.1742 6.71651H44.8565Z" fill="#FEFEFE"/>
<path d="M0 0.479736H22.0685V7.19625H14.6324V37.6604H7.67601V7.19625H0V0.479736Z" fill="#FEFEFE"/>
<path d="M112.022 15.5919H133.371V22.3084H118.978V30.9439H133.611L133.851 31.1838V37.6605H112.022V15.5919Z" fill="#FEFEFE"/>
<path d="M94.9905 0.479736H103.866L103.146 1.67911L100.028 5.51712L96.9095 9.595L93.5512 13.6729L91.1524 16.7913L89.4733 18.9501L89.9531 19.9096L93.0715 23.7477L95.4702 26.866L98.1088 30.2243L101.227 34.0623L103.866 37.4206V37.6604H94.7506L92.3518 34.542L87.0746 27.8255L83.7163 23.5078V14.8723L86.5948 11.0343L89.4733 7.43612L92.5917 3.35824L94.7506 0.719612L94.9905 0.479736Z" fill="#FEFEFE"/>
<path d="M230.041 0.479736H232.439L235.318 1.19936L237.957 2.63862L240.115 4.79749L242.034 8.6355L242.514 10.5545L242.754 15.8318V23.5078L242.514 27.5857L241.555 31.1838L239.876 33.8224L237.477 35.9813L235.078 37.1807L233.159 37.6604H229.321L226.203 36.7009L223.804 35.0218L221.645 32.623L220.446 29.9844L219.966 28.0654L219.726 25.6667V12.2336L220.206 9.11525L221.165 6.7165L222.605 4.55762L224.524 2.63862L227.882 0.959487L230.041 0.479736ZM229.801 3.83799L227.402 4.79749L225.003 6.95637L223.804 9.595L223.324 12.4735V25.9065L223.804 28.785L224.763 30.9439L226.443 32.8629L228.362 34.0623L230.52 34.542L233.399 34.3022L235.798 33.1028L237.717 30.9439L238.676 28.785L239.156 25.1869V12.9533L238.436 8.87538L237.237 6.7165L235.318 5.03737L233.399 4.07787L232.679 3.83799H229.801Z" fill="#FEFEFE"/>
<path d="M294.807 0.479736H296.966L299.364 0.959487L301.763 1.91899L303.922 3.59812L305.601 5.27725L307.04 7.91588L308 11.0343V15.5919L307.04 18.4704L305.121 22.0685L298.165 32.3832L295.766 35.9813L295.047 36.9408L290.969 37.1807L291.448 35.9813L298.405 25.6667L298.645 25.1869L296.246 25.6667H294.087L291.928 25.1869L289.05 23.7477L287.131 22.0685L285.452 19.6698L284.252 17.0311L283.772 14.8723V11.514L284.492 8.6355L285.931 5.757L288.33 3.11837L290.729 1.67911L293.367 0.719612L294.807 0.479736ZM294.327 3.83799L292.168 4.55762L290.009 6.23675L288.57 8.15575L287.61 10.3146L287.371 11.514V14.6324L288.09 17.0311L289.529 19.4299L291.448 21.109L294.327 22.3084H297.445L300.324 21.109L302.243 19.4299L303.682 17.271L304.402 15.352L304.642 12.4735L303.682 8.87538L302.003 6.47662L300.324 5.03737L298.405 4.07787L297.445 3.83799H294.327Z" fill="#FEFEFE"/>
<path d="M197.897 0.479736H200.296L203.175 1.19936L205.813 2.63862L208.212 5.03737L209.651 7.91588L210.131 10.0748V13.1931L209.171 16.0716L207.732 18.4704L205.573 20.8692L203.894 22.7882L201.975 24.4673L197.418 29.0249L195.499 30.704L192.62 33.5826L209.891 33.8224V36.9408L187.583 37.1807L187.343 36.9408V33.8224L195.499 25.6667L197.418 23.9875L203.414 17.9906L205.573 14.8723L206.293 12.7134V10.0748L205.333 7.43612L203.654 5.51712L201.256 4.31774L200.536 4.07787H197.178L195.019 5.03737L193.34 6.23675L191.9 8.6355L191.181 12.7134H187.583L187.823 9.595L188.782 6.7165L190.461 4.07787L192.38 2.39874L194.779 1.19936L196.218 0.719612L197.897 0.479736Z" fill="#FEFEFE"/>
<path d="M75.3208 0.479736H82.2772V37.6604H75.3208V0.479736Z" fill="#FEFEFE"/>
<path d="M264.582 0.479736H268.181L267.701 1.91899L262.903 11.2741L255.467 26.1464L254.748 27.3458L260.265 27.1059H265.782L268.9 27.3458V14.8723L269.14 14.6324H272.498V27.3458H275.857V30.4642H272.498V36.9408H268.9V30.4642H251.149V27.1059L260.265 8.87538L262.663 4.31774L264.582 0.479736Z" fill="#FEFEFE"/>
<path d="M112.022 0.479736H133.611L133.851 0.719612V7.19625H112.022V0.479736Z" fill="#FEFEFE"/>
<path d="M0 46.4612H12.4396L14.7433 47.8433L16.5862 52.4506L27.6436 91.6124L29.0258 97.1412L33.6331 82.3979L44.6906 49.2255L46.5335 46.9219L47.9157 46.4612H54.3658L56.6695 47.8433L58.5124 51.5292L66.8055 76.8692L72.7949 95.759V97.6019H73.7164L74.1771 92.9946L82.4702 63.5081L86.6168 49.2255L88.4597 46.9219L89.8419 46.4612H101.36L100.899 49.6862L93.0669 75.0263L82.4702 109.12L79.7059 117.413H67.2662L62.6589 103.591L55.2873 80.555L50.68 66.7332L39.6226 100.827L34.5546 116.952L34.0938 117.413H21.6542L17.9684 105.895L10.5967 82.3979L0.460727 49.6862L0 46.4612Z" fill="#FEFEFE"/>
<path d="M185.212 75.9477H226.217V88.8481H198.573L199.034 105.434L227.139 105.895V118.795H185.212V75.9477Z" fill="#FEFEFE"/>
<path d="M120.25 75.9477H161.255V88.8481H133.611V105.895H162.176V118.795H120.711L120.25 118.335V75.9477Z" fill="#FEFEFE"/>
<path d="M289.798 46.0004H307.766L305.002 49.6862L300.855 54.7542L294.866 62.1259L289.798 68.5761L284.73 74.5655L279.662 81.0157V82.8586L284.73 88.8481L289.798 95.2983L296.248 103.131L302.237 110.502L306.384 115.57L307.766 117.874H289.798L283.808 110.502L278.74 104.052L272.751 96.6804L267.683 90.2303V73.6441L273.672 66.2724L276.897 62.1259L284.269 52.9113L289.798 46.0004Z" fill="#FEFEFE"/>
<path d="M251.097 46.0004H264.919V117.874H251.097V46.0004Z" fill="#FEFEFE"/>
<path d="M185.212 46.9219H227.139V59.8222H185.212V46.9219Z" fill="#FEFEFE"/>
<path d="M120.25 46.9219H162.176V59.8222H120.25V46.9219Z" fill="#FEFEFE"/>
</svg>
