<svg width="171" height="11" viewBox="0 0 171 11" fill="none" xmlns="http://www.w3.org/2000/svg">
<g clip-path="url(#clip0_143_2303)">
<path d="M7.94739 11.1182C7.37109 10.4303 6.7669 9.83542 6.13483 9.33347C5.52134 8.81294 4.87068 8.38537 4.18284 8.05074V6.85166C5.55852 6.14522 6.81337 5.11346 7.94739 3.75636H10.0946C9.89008 4.29548 9.64841 4.80672 9.36955 5.29007C9.10929 5.75483 8.83043 6.201 8.53298 6.62857V8.27382C8.83043 8.66422 9.10929 9.1011 9.36955 9.58444C9.64841 10.0492 9.89008 10.5604 10.0946 11.1182H7.94739ZM8.36567 8.58056L8.39356 6.29395H23.7027V8.58056H8.36567Z" fill="white"/>
<path d="M35.1134 10.6763C35.0604 10.6763 35.0163 10.663 34.981 10.6365C34.9457 10.6012 34.928 10.5526 34.928 10.4908V2.26528C34.928 2.14166 34.8662 2.07984 34.7426 2.07984H31.9345C31.8108 2.07984 31.749 2.01803 31.749 1.8944V0.755279C31.749 0.631653 31.8108 0.56984 31.9345 0.56984H39.6302C39.6832 0.56984 39.7273 0.587501 39.7627 0.622822C39.798 0.649314 39.8156 0.693466 39.8156 0.755279V1.8944C39.8156 1.95622 39.798 2.00479 39.7627 2.04011C39.7273 2.0666 39.6832 2.07984 39.6302 2.07984H36.7956C36.672 2.07984 36.6102 2.14166 36.6102 2.26528V10.4908C36.6102 10.6145 36.5484 10.6763 36.4247 10.6763H35.1134ZM45.069 10.8485C44.0093 10.8485 43.1175 10.6145 42.3934 10.1464C41.6693 9.6696 41.1262 9.03822 40.7641 8.25232C40.4109 7.45758 40.2343 6.57895 40.2343 5.61643C40.2343 4.65391 40.4109 3.7797 40.7641 2.99379C41.1262 2.20789 41.6693 1.58092 42.3934 1.11291C43.1175 0.644899 44.0093 0.410892 45.069 0.410892C46.1198 0.410892 47.0073 0.644899 47.7314 1.11291C48.4643 1.58092 49.0074 2.2123 49.3606 3.00704C49.7226 3.79295 49.9036 4.66275 49.9036 5.61643C49.9036 6.57895 49.7226 7.45758 49.3606 8.25232C49.0074 9.03822 48.4643 9.6696 47.7314 10.1464C47.0073 10.6145 46.1198 10.8485 45.069 10.8485ZM45.069 9.33846C46.0492 9.33846 46.8086 8.99849 47.3472 8.31854C47.8947 7.6386 48.1685 6.7379 48.1685 5.61643C48.1685 4.5038 47.8947 3.60751 47.3472 2.92757C46.8086 2.24762 46.0492 1.90765 45.069 1.90765C44.4244 1.90765 43.868 2.0666 43.4 2.38449C42.932 2.69356 42.5744 3.13067 42.3271 3.69581C42.0887 4.25213 41.9695 4.89234 41.9695 5.61643C41.9695 6.34936 42.0887 6.99839 42.3271 7.56354C42.5744 8.11986 42.932 8.55697 43.4 8.87486C43.868 9.18393 44.4244 9.33846 45.069 9.33846ZM51.7499 10.6763C51.6969 10.6763 51.6527 10.663 51.6174 10.6365C51.5821 10.6012 51.5644 10.5526 51.5644 10.4908V0.755279C51.5644 0.693466 51.5821 0.649314 51.6174 0.622822C51.6527 0.587501 51.6969 0.56984 51.7499 0.56984H53.0612C53.1848 0.56984 53.2466 0.631653 53.2466 0.755279V4.74222C53.2466 4.84818 53.2775 4.90117 53.3393 4.90117C53.3923 4.90117 53.4365 4.87026 53.4718 4.80845L56.9422 0.675805C56.9863 0.605162 57.0569 0.56984 57.1541 0.56984H58.7965C58.9113 0.56984 58.9687 0.605162 58.9687 0.675805C58.9687 0.719957 58.9511 0.759694 58.9158 0.795016L55.0348 5.31178C54.9906 5.37359 54.9686 5.41775 54.9686 5.44424C54.9686 5.47073 54.9862 5.51047 55.0215 5.56345L59.0879 10.4511C59.1144 10.4864 59.1277 10.5217 59.1277 10.5571C59.1277 10.6365 59.0747 10.6763 58.9687 10.6763H57.2865C57.1894 10.6763 57.1143 10.6365 57.0614 10.5571L53.4718 6.21249C53.4276 6.1595 53.3879 6.13301 53.3526 6.13301C53.2819 6.13301 53.2466 6.18599 53.2466 6.29196V10.4908C53.2466 10.6145 53.1848 10.6763 53.0612 10.6763H51.7499ZM60.5877 10.6763C60.5347 10.6763 60.4906 10.663 60.4552 10.6365C60.4199 10.6012 60.4023 10.5526 60.4023 10.4908V0.755279C60.4023 0.693466 60.4199 0.649314 60.4552 0.622822C60.4906 0.587501 60.5347 0.56984 60.5877 0.56984H66.9059C66.9589 0.56984 67.003 0.587501 67.0383 0.622822C67.0737 0.649314 67.0913 0.693466 67.0913 0.755279V1.8944C67.0913 1.95622 67.0737 2.00479 67.0383 2.04011C67.003 2.0666 66.9589 2.07984 66.9059 2.07984H62.2699C62.1463 2.07984 62.0845 2.14166 62.0845 2.26528V4.67599C62.0845 4.79962 62.1463 4.86143 62.2699 4.86143H66.3496C66.4732 4.86143 66.535 4.92324 66.535 5.04687V6.17275C66.535 6.29638 66.4732 6.35819 66.3496 6.35819H62.2699C62.1463 6.35819 62.0845 6.42 62.0845 6.54363V8.98083C62.0845 9.10445 62.1463 9.16627 62.2699 9.16627H66.9059C66.9589 9.16627 67.003 9.18393 67.0383 9.21925C67.0737 9.24574 67.0913 9.28989 67.0913 9.3517V10.4908C67.0913 10.5526 67.0737 10.6012 67.0383 10.6365C67.003 10.663 66.9589 10.6763 66.9059 10.6763H60.5877ZM68.9211 10.6763C68.8681 10.6763 68.8239 10.663 68.7886 10.6365C68.7533 10.6012 68.7356 10.5526 68.7356 10.4908V0.755279C68.7356 0.693466 68.7533 0.649314 68.7886 0.622822C68.8239 0.587501 68.8681 0.56984 68.9211 0.56984H70.6165C70.7313 0.56984 70.8064 0.609577 70.8417 0.689051L74.8286 7.97416C74.864 8.03597 74.9037 8.06688 74.9479 8.06688C74.9743 8.06688 74.9964 8.05363 75.0141 8.02714C75.0406 8.00065 75.0538 7.96091 75.0538 7.90793V0.755279C75.0538 0.631653 75.1156 0.56984 75.2393 0.56984H76.5373C76.661 0.56984 76.7228 0.631653 76.7228 0.755279V10.4908C76.7228 10.6145 76.661 10.6763 76.5373 10.6763H74.8419C74.7359 10.6763 74.6609 10.6365 74.6167 10.5571L70.643 3.2852C70.6077 3.21455 70.568 3.17923 70.5238 3.17923C70.4973 3.17923 70.4708 3.19689 70.4443 3.23222C70.4267 3.25871 70.4178 3.29403 70.4178 3.33818V10.4908C70.4178 10.6145 70.356 10.6763 70.2324 10.6763H68.9211ZM78.6976 10.6763C78.574 10.6763 78.5122 10.6145 78.5122 10.4908V9.48416C78.5122 9.40469 78.5475 9.32963 78.6181 9.25899L81.7044 6.59661C82.3667 6.02263 82.8567 5.50164 83.1746 5.03362C83.4925 4.55678 83.6515 4.05786 83.6515 3.53687C83.6515 3.01587 83.5146 2.60967 83.2409 2.31827C82.9671 2.01803 82.5565 1.86791 82.009 1.86791C80.8611 1.86791 80.2209 2.53461 80.0884 3.86801C80.0796 3.99163 80.0178 4.05345 79.903 4.05345H78.6976C78.6358 4.05345 78.5872 4.0402 78.5519 4.01371C78.5166 3.97839 78.5033 3.92982 78.5122 3.86801C78.5828 2.78186 78.9184 1.93856 79.5188 1.33809C80.1281 0.728788 80.9582 0.424138 82.009 0.424138C82.636 0.424138 83.1923 0.547764 83.678 0.795016C84.1725 1.03344 84.5522 1.37782 84.8171 1.82818C85.0908 2.27853 85.2277 2.80394 85.2277 3.40441C85.2277 4.19915 84.9981 4.93649 84.5389 5.61643C84.0886 6.29638 83.497 6.96307 82.764 7.61652L81.2143 8.94109C81.1613 8.97641 81.1348 9.01615 81.1348 9.0603C81.1348 9.13094 81.1878 9.16627 81.2938 9.16627H85.5059C85.6295 9.16627 85.6913 9.22808 85.6913 9.3517V10.4908C85.6913 10.6145 85.6295 10.6763 85.5059 10.6763H78.6976ZM90.6935 10.8352C89.5279 10.8352 88.6272 10.4069 87.9914 9.55039C87.3556 8.69384 87.0377 7.3781 87.0377 5.60319C87.0377 3.8371 87.3468 2.5302 87.9649 1.68247C88.5919 0.834753 89.4793 0.410892 90.6273 0.410892C91.7929 0.410892 92.6892 0.839168 93.3162 1.69572C93.9519 2.55227 94.2698 3.87242 94.2698 5.65617C94.2698 7.41342 93.9564 8.71591 93.3294 9.56364C92.7113 10.4114 91.8326 10.8352 90.6935 10.8352ZM90.6538 9.32521C91.2719 9.32521 91.7487 9.03822 92.0843 8.46425C92.4199 7.89027 92.5876 6.94983 92.5876 5.64292C92.5876 4.31836 92.4154 3.36467 92.0711 2.78186C91.7267 2.19905 91.241 1.90765 90.614 1.90765C89.9959 1.90765 89.5235 2.19905 89.1968 2.78186C88.8789 3.36467 88.7199 4.30953 88.7199 5.61643C88.7199 6.941 88.8833 7.89027 89.21 8.46425C89.5456 9.03822 90.0268 9.32521 90.6538 9.32521ZM100.173 10.6763C100.12 10.6763 100.076 10.663 100.04 10.6365C100.005 10.6012 99.9873 10.5526 99.9873 10.4908V8.54372C99.9873 8.42009 99.9255 8.35828 99.8019 8.35828H95.709C95.5853 8.35828 95.5235 8.29647 95.5235 8.17284V6.86152C95.5235 6.76439 95.5456 6.68491 95.5897 6.6231L99.9476 0.675805C99.9917 0.605162 100.062 0.56984 100.159 0.56984H101.484C101.608 0.56984 101.669 0.631653 101.669 0.755279V6.66284C101.669 6.78646 101.731 6.84828 101.855 6.84828H102.862C102.985 6.84828 103.047 6.91009 103.047 7.03372V8.17284C103.047 8.29647 102.985 8.35828 102.862 8.35828H101.855C101.731 8.35828 101.669 8.42009 101.669 8.54372V10.4908C101.669 10.6145 101.608 10.6763 101.484 10.6763H100.173ZM99.8019 6.84828C99.9255 6.84828 99.9873 6.78646 99.9873 6.66284V3.1395C99.9873 3.03353 99.9564 2.98055 99.8946 2.98055C99.8504 2.98055 99.8107 3.01145 99.7754 3.07327L97.2587 6.6231C97.2322 6.65842 97.219 6.69374 97.219 6.72907C97.219 6.80854 97.2719 6.84828 97.3779 6.84828H99.8019ZM107.639 10.8485C106.729 10.8485 105.987 10.61 105.413 10.1332C104.839 9.64752 104.469 8.98083 104.301 8.13311V8.09337C104.301 7.9874 104.358 7.93442 104.473 7.93442H105.639C105.745 7.93442 105.811 7.98299 105.837 8.08012C106.12 8.95434 106.72 9.39144 107.639 9.39144C109.016 9.39144 109.754 8.41568 109.851 6.46415V6.43766C109.851 6.39351 109.837 6.35819 109.811 6.3317C109.793 6.30521 109.767 6.29196 109.731 6.29196C109.687 6.29196 109.639 6.31845 109.586 6.37143C109.082 6.94541 108.389 7.2324 107.506 7.2324C106.87 7.2324 106.305 7.09553 105.811 6.82179C105.325 6.54804 104.945 6.16392 104.672 5.66941C104.407 5.16608 104.274 4.58327 104.274 3.92099C104.274 3.24105 104.416 2.63616 104.698 2.10634C104.99 1.57651 105.391 1.16148 105.903 0.861244C106.424 0.56101 107.016 0.410892 107.678 0.410892C108.906 0.410892 109.837 0.843583 110.473 1.70897C111.118 2.57435 111.44 3.7797 111.44 5.32503C111.44 7.03813 111.118 8.38919 110.473 9.3782C109.829 10.3584 108.884 10.8485 107.639 10.8485ZM107.705 5.8681C108.279 5.8681 108.742 5.68266 109.096 5.31178C109.458 4.9409 109.639 4.46406 109.639 3.88125C109.639 3.28961 109.458 2.80394 109.096 2.42423C108.742 2.04452 108.279 1.85467 107.705 1.85467C107.166 1.85467 106.738 2.04452 106.42 2.42423C106.111 2.80394 105.956 3.28961 105.956 3.88125C105.956 4.48172 106.111 4.96298 106.42 5.32503C106.738 5.68708 107.166 5.8681 107.705 5.8681ZM121.416 10.8485C120.338 10.8485 119.433 10.61 118.7 10.1332C117.967 9.65635 117.42 9.02498 117.058 8.23907C116.705 7.44433 116.528 6.57453 116.528 5.62968C116.528 4.68482 116.705 3.81944 117.058 3.03353C117.42 2.23879 117.967 1.603 118.7 1.12616C119.433 0.649314 120.334 0.410892 121.402 0.410892C122.577 0.410892 123.539 0.68022 124.29 1.21888C125.049 1.7487 125.566 2.47721 125.84 3.40441C125.848 3.42207 125.853 3.44415 125.853 3.47064C125.853 3.55894 125.795 3.60309 125.681 3.60309H124.184C124.078 3.60309 124.012 3.55453 123.985 3.45739C123.773 2.96289 123.447 2.58318 123.005 2.31827C122.572 2.04452 122.034 1.90765 121.389 1.90765C120.709 1.90765 120.135 2.07101 119.667 2.39774C119.199 2.72447 118.846 3.1704 118.607 3.73555C118.378 4.29187 118.263 4.91441 118.263 5.60319C118.263 6.31845 118.387 6.95866 118.634 7.52381C118.881 8.08895 119.248 8.53489 119.733 8.86162C120.219 9.18834 120.811 9.3517 121.508 9.3517C122.347 9.3517 123.014 9.13536 123.508 8.70267C124.012 8.26115 124.285 7.64302 124.33 6.84828V6.82179C124.33 6.77763 124.312 6.74231 124.277 6.71582C124.241 6.6805 124.202 6.66284 124.157 6.66284H122.237C122.113 6.66284 122.051 6.60103 122.051 6.4774V5.43099C122.051 5.30737 122.113 5.24555 122.237 5.24555H125.826C125.879 5.24555 125.923 5.26321 125.959 5.29854C125.994 5.32503 126.012 5.36918 126.012 5.43099V10.4908C126.012 10.5526 125.994 10.6012 125.959 10.6365C125.923 10.663 125.879 10.6763 125.826 10.6763H124.661C124.537 10.6763 124.475 10.6145 124.475 10.4908V9.77557C124.475 9.68726 124.444 9.64311 124.383 9.64311C124.338 9.64311 124.29 9.6696 124.237 9.72258C123.901 10.1023 123.482 10.3849 122.979 10.5703C122.484 10.7557 121.963 10.8485 121.416 10.8485ZM128.031 10.6763C127.978 10.6763 127.934 10.663 127.898 10.6365C127.863 10.6012 127.845 10.5526 127.845 10.4908V0.755279C127.845 0.693466 127.863 0.649314 127.898 0.622822C127.934 0.587501 127.978 0.56984 128.031 0.56984H129.342C129.466 0.56984 129.528 0.631653 129.528 0.755279V8.98083C129.528 9.10445 129.589 9.16627 129.713 9.16627H133.713C133.837 9.16627 133.899 9.22808 133.899 9.3517V10.4908C133.899 10.6145 133.837 10.6763 133.713 10.6763H128.031ZM139.129 10.8485C138.069 10.8485 137.178 10.6145 136.453 10.1464C135.729 9.6696 135.186 9.03822 134.824 8.25232C134.471 7.45758 134.294 6.57895 134.294 5.61643C134.294 4.65391 134.471 3.7797 134.824 2.99379C135.186 2.20789 135.729 1.58092 136.453 1.11291C137.178 0.644899 138.069 0.410892 139.129 0.410892C140.18 0.410892 141.067 0.644899 141.791 1.11291C142.524 1.58092 143.067 2.2123 143.421 3.00704C143.783 3.79295 143.964 4.66275 143.964 5.61643C143.964 6.57895 143.783 7.45758 143.421 8.25232C143.067 9.03822 142.524 9.6696 141.791 10.1464C141.067 10.6145 140.18 10.8485 139.129 10.8485ZM139.129 9.33846C140.109 9.33846 140.869 8.99849 141.407 8.31854C141.955 7.6386 142.229 6.7379 142.229 5.61643C142.229 4.5038 141.955 3.60751 141.407 2.92757C140.869 2.24762 140.109 1.90765 139.129 1.90765C138.484 1.90765 137.928 2.0666 137.46 2.38449C136.992 2.69356 136.635 3.13067 136.387 3.69581C136.149 4.25213 136.03 4.89234 136.03 5.61643C136.03 6.34936 136.149 6.99839 136.387 7.56354C136.635 8.11986 136.992 8.55697 137.46 8.87486C137.928 9.18393 138.484 9.33846 139.129 9.33846ZM145.81 10.6763C145.757 10.6763 145.713 10.663 145.678 10.6365C145.642 10.6012 145.625 10.5526 145.625 10.4908V0.755279C145.625 0.693466 145.642 0.649314 145.678 0.622822C145.713 0.587501 145.757 0.56984 145.81 0.56984H149.559C150.759 0.56984 151.625 0.834753 152.155 1.36458C152.587 1.78844 152.804 2.36683 152.804 3.09976C152.804 3.60309 152.702 4.04461 152.499 4.42432C152.296 4.80403 152.009 5.07778 151.638 5.24555C151.567 5.28971 151.532 5.32944 151.532 5.36476C151.532 5.40009 151.572 5.43099 151.651 5.45748C152.19 5.59877 152.601 5.8681 152.883 6.26547C153.166 6.66284 153.307 7.16617 153.307 7.77547C153.307 8.21699 153.228 8.61436 153.069 8.96758C152.918 9.3208 152.715 9.6122 152.459 9.84179C152.097 10.1597 151.669 10.3805 151.174 10.5041C150.68 10.6189 150.199 10.6763 149.731 10.6763H145.81ZM149.479 4.83494C150.009 4.83494 150.415 4.71573 150.698 4.47731C150.98 4.23005 151.121 3.88567 151.121 3.44415C151.121 3.03795 150.993 2.71564 150.737 2.47721C150.587 2.33593 150.384 2.23438 150.128 2.17256C149.881 2.11075 149.572 2.07984 149.201 2.07984H147.492C147.369 2.07984 147.307 2.14166 147.307 2.26528V4.6495C147.307 4.77313 147.369 4.83494 147.492 4.83494H149.479ZM149.532 9.16627C149.885 9.16627 150.203 9.13977 150.486 9.08679C150.768 9.03381 151.011 8.9146 151.214 8.72916C151.497 8.47308 151.638 8.11103 151.638 7.64302C151.638 7.04255 151.457 6.65842 151.095 6.49064C150.742 6.31404 150.296 6.22573 149.757 6.22573H147.492C147.369 6.22573 147.307 6.28754 147.307 6.41117V8.98083C147.307 9.10445 147.369 9.16627 147.492 9.16627H149.532ZM154.371 10.6763C154.3 10.6763 154.252 10.6586 154.225 10.6233C154.199 10.5791 154.199 10.5262 154.225 10.4643L157.709 0.715542C157.744 0.618408 157.815 0.56984 157.921 0.56984H159.457C159.572 0.56984 159.643 0.618408 159.669 0.715542L163.166 10.4643C163.175 10.482 163.179 10.5041 163.179 10.5306C163.179 10.5747 163.162 10.61 163.126 10.6365C163.1 10.663 163.06 10.6763 163.007 10.6763H161.656C161.541 10.6763 161.47 10.6233 161.444 10.5173L160.795 8.62319C160.751 8.51723 160.68 8.46425 160.583 8.46425H156.808C156.693 8.46425 156.623 8.51723 156.596 8.62319L155.947 10.5173C155.912 10.6233 155.841 10.6763 155.735 10.6763H154.371ZM160.027 6.99398C160.089 6.99398 160.133 6.97632 160.159 6.941C160.186 6.89684 160.19 6.84386 160.172 6.78205L158.821 2.74213C158.795 2.66265 158.755 2.62292 158.702 2.62292C158.64 2.62292 158.596 2.66265 158.57 2.74213L157.205 6.78205C157.197 6.79971 157.192 6.82179 157.192 6.84828C157.192 6.89243 157.205 6.92775 157.232 6.95424C157.267 6.98073 157.307 6.99398 157.351 6.99398H160.027ZM164.611 10.6763C164.558 10.6763 164.514 10.663 164.479 10.6365C164.443 10.6012 164.426 10.5526 164.426 10.4908V0.755279C164.426 0.693466 164.443 0.649314 164.479 0.622822C164.514 0.587501 164.558 0.56984 164.611 0.56984H165.922C166.046 0.56984 166.108 0.631653 166.108 0.755279V8.98083C166.108 9.10445 166.17 9.16627 166.293 9.16627H170.293C170.417 9.16627 170.479 9.22808 170.479 9.3517V10.4908C170.479 10.6145 170.417 10.6763 170.293 10.6763H164.611Z" fill="white"/>
</g>
<defs>
<clipPath id="clip0_143_2303">
<rect width="171" height="11" fill="white"/>
</clipPath>
</defs>
</svg>
