<svg width="891" height="70" viewBox="0 0 891 70" fill="none" xmlns="http://www.w3.org/2000/svg">
<path d="M590.593 0.679382H602.327L604.5 1.98312L606.238 6.32892L616.668 43.2682L617.972 48.4831L622.318 34.5766L632.747 3.28686L634.486 1.11396L635.79 0.679382H641.874L644.047 1.98312L645.785 5.45976L653.607 29.3616L659.257 47.1794V48.9177H660.126L660.561 44.5719L668.383 16.7588L672.294 3.28686L674.033 1.11396L675.336 0.679382H686.201L685.766 3.72144L678.378 27.6233L668.383 59.7822L665.775 67.6046H654.042L649.696 54.5672L642.743 32.8383L638.397 19.8009L627.967 51.9598L623.187 67.17L622.752 67.6046H611.018L607.542 56.7401L600.589 34.5766L591.028 3.72144L590.593 0.679382Z" fill="#FEFEFE"/>
<path d="M261.182 1.11401H274.22L286.822 19.8009L299.425 38.9224L302.467 43.2682V1.54859L302.902 1.11401H315.07L315.505 1.98317V68.4738H303.771L299.425 61.5206L296.383 57.1748L285.084 40.2262L274.22 24.1467V23.2776H273.35L273.785 34.5766V68.4738H260.748V1.54859L261.182 1.11401Z" fill="#FEFEFE"/>
<path d="M81.2663 0.244812H89.0887L95.6074 1.54855L100.822 3.72145L106.037 6.7635L111.687 11.9785L115.163 16.7588L118.206 22.8429L119.509 27.1887L119.944 30.2308V39.7915L118.206 46.7448L114.729 53.6981L111.687 57.6093L106.906 62.3897L101.257 65.8663L96.042 68.0392L90.827 69.3429H79.0934L72.5747 67.6046L65.1868 63.6934L60.4065 59.7822L56.9298 55.871L53.0186 49.3523L50.8457 42.8336L49.9766 36.7495V31.9691L51.2803 25.0158L53.4532 19.8009L56.0607 15.0205L60.841 9.80556L64.3177 6.7635L70.4018 3.28687L76.0513 1.11397L81.2663 0.244812ZM81.2663 12.413L76.9205 13.7168L72.1401 16.3243L67.7943 20.2355L64.3177 25.885L62.5794 32.8383V36.7495L63.8831 42.399L66.9252 48.4831L71.7055 53.2635L75.1822 55.4364L80.3971 57.1747L83.0046 57.6093H87.785L93.8691 55.871L99.084 52.8289L102.561 49.3523L105.603 44.5719L107.341 39.357L107.776 34.142L106.472 27.1887L103.43 21.5392L100.388 18.0626L96.042 15.0205L90.827 12.8476L89.0887 12.413H81.2663Z" fill="#FEFEFE"/>
<path d="M0 1.11401H39.9813V13.2822H26.5093V68.4738H13.9065V13.2822H0V1.11401Z" fill="#FEFEFE"/>
<path d="M765.294 28.4925H803.972V40.6607H777.897L778.332 56.3056L804.841 56.7402V68.9084H765.294V28.4925Z" fill="#FEFEFE"/>
<path d="M704.019 28.4925H742.696V40.6607H716.621V56.7402H743.565V68.9084H704.453L704.019 68.4738V28.4925Z" fill="#FEFEFE"/>
<path d="M202.949 28.4925H241.626V40.6607H215.552V56.3056H242.061L242.495 56.7402V68.4738H202.949V28.4925Z" fill="#FEFEFE"/>
<path d="M863.944 0.244812H880.892L878.285 3.72145L874.374 8.50182L868.724 15.4551L863.944 21.5392L859.163 27.1887L854.383 33.2728V35.0112L859.163 40.6607L863.944 46.7448L870.028 54.1327L875.677 61.0859L879.589 65.8663L880.892 68.0392H863.944L858.294 61.0859L853.514 55.0018L847.864 48.0485L843.084 41.9644V26.3196L848.734 19.3663L851.776 15.4551L858.729 6.7635L863.944 0.244812Z" fill="#FEFEFE"/>
<path d="M172.093 1.11401H188.173L186.869 3.28691L181.219 10.2402L175.57 17.628L169.486 25.0159L165.14 30.6654L162.098 34.5766L162.967 36.3149L168.617 43.2682L172.962 48.9178L177.743 55.0019L183.392 61.9551L188.173 68.0392V68.4738H171.659L167.313 62.8243L157.752 50.6561L151.668 42.8336V27.1888L156.883 20.2355L162.098 13.7168L167.747 6.32897L171.659 1.54859L172.093 1.11401Z" fill="#FEFEFE"/>
<path d="M416.762 1.11401H421.107L426.322 2.41775L431.103 5.02523L435.014 8.93644L438.491 15.8897L439.36 19.3664L439.794 28.9271V42.8336L439.36 50.2215L437.621 56.7402L434.579 61.5206L430.234 65.4318L425.888 67.6047L422.411 68.4738H415.458L409.808 66.7355L405.463 63.6935L401.551 59.3477L399.378 54.5673L398.509 51.0906L398.075 46.7449V22.4084L398.944 16.7589L400.682 12.4131L403.29 8.50186L406.766 5.02523L412.85 1.98317L416.762 1.11401ZM416.327 7.19813L411.981 8.93644L407.635 12.8477L405.463 17.628L404.593 22.843V47.1794L405.463 52.3944L407.201 56.3056L410.243 59.7822L413.72 61.9551L417.631 62.8243L422.846 62.3897L427.192 60.2168L430.668 56.3056L432.406 52.3944L433.276 45.8757V23.7121L431.972 16.3243L429.799 12.4131L426.322 9.37102L422.846 7.63271L421.542 7.19813H416.327Z" fill="#FEFEFE"/>
<path d="M534.098 1.11401H538.009L542.355 1.98317L546.701 3.72149L550.612 6.76355L553.654 9.8056L556.262 14.586L558 20.2355V28.4925L556.262 33.7075L552.785 40.2262L540.182 58.9131L535.836 65.4318L534.533 67.1701L527.145 67.6047L528.014 65.4318L540.617 46.7449L541.051 45.8757L536.706 46.7449H532.794L528.883 45.8757L523.668 43.2682L520.192 40.2262L517.149 35.8804L514.977 31.1L514.107 27.1888V21.1047L515.411 15.8897L518.019 10.6748L522.364 5.89439L526.71 3.28691L531.491 1.54859L534.098 1.11401ZM533.229 7.19813L529.318 8.50186L525.406 11.5439L522.799 15.0206L521.061 18.9318L520.626 21.1047V26.7542L521.93 31.1L524.537 35.4458L528.014 38.4878L533.229 40.6607H538.878L544.093 38.4878L547.57 35.4458L550.178 31.5346L551.481 28.0579L551.916 22.843L550.178 16.3243L547.135 11.9785L544.093 9.37102L540.617 7.63271L538.878 7.19813H533.229Z" fill="#FEFEFE"/>
<path d="M358.528 1.11401H362.874L368.089 2.41775L372.869 5.02523L377.215 9.37102L379.823 14.586L380.692 18.4972V24.1467L378.953 29.3617L376.346 33.7075L372.435 38.0533L369.393 41.5299L365.916 44.572L357.659 52.829L354.182 55.871L348.967 61.086L380.257 61.5206V67.1701L339.841 67.6047L339.407 67.1701V61.5206L354.182 46.7449L357.659 43.7028L368.524 32.8383L372.435 27.1888L373.739 23.2776V18.4972L372 13.7168L368.958 10.2402L364.612 8.06728L363.309 7.63271H357.224L353.313 9.37102L350.271 11.5439L347.664 15.8897L346.36 23.2776H339.841L340.276 17.628L342.014 12.4131L345.056 7.63271L348.533 4.59065L352.879 2.41775L355.486 1.54859L358.528 1.11401Z" fill="#FEFEFE"/>
<path d="M827.439 0.244812H840.477V68.0392H827.439V0.244812Z" fill="#FEFEFE"/>
<path d="M136.458 1.11401H149.061V68.4738H136.458V1.11401Z" fill="#FEFEFE"/>
<path d="M479.341 1.11401H485.86L484.991 3.72149L476.299 20.6701L462.827 47.614L461.524 49.7869L471.519 49.3523H481.514L487.164 49.7869V27.1888L487.598 26.7542H493.682V49.7869H499.767V55.4364H493.682V67.1701H487.164V55.4364H455.005V49.3523L471.519 16.3243L475.865 8.06728L479.341 1.11401Z" fill="#FEFEFE"/>
<path d="M765.294 1.11401H804.841V13.2822H765.294V1.11401Z" fill="#FEFEFE"/>
<path d="M704.019 1.11401H743.565V13.2822H704.019V1.11401Z" fill="#FEFEFE"/>
<path d="M202.949 1.11401H242.061L242.495 1.54859V13.2822H202.949V1.11401Z" fill="#FEFEFE"/>
</svg>
